Patient4_TMGait_0pt4_03_right_44_EMG.mot
version=1
nRows=40
nColumns=33
inDegrees=no
endheader
time	1LAddLong	2LGlutMax	3LGlutMed	4LIliopsoas	5LSemiMemb	6LBicFemLong	7LRecFem	8LVastMed	9LVastLat	10LGasMed	11LTibAnt	12lTibPost	13LPeroneusLong	14LSol	15LExtDigLong	16LFlexDigLong	17RAddLong	18RGlutMax	19RGlutMed	20RIliopsoas	21RSemiMemb	22RBicFemLong	23RRecFem	24RVastMed	25RVastLat	26RGasMed	27RTibAnt	28RTibPost	29RPeroneusLong	30RSol	31RExtDigLong	32RFlexDigLong
58.6	0.037384	0.036926	0.011597	-0.009918	-0.035858	-0.045929	0.10223	-0.023804	-0.13596	0.028076	-0.000458	-0.000763	-0.017548	0.011902	0.003815	0.005341	-0.046539	0.25833	0.095673	0.14328	0.13412	0.3183	-0.28519	0.070496	0.013275	0.092163	0.14969	0.029297	0.049438	0.008545	-0.003357	-0.0177
58.601	0.036469	-0.018768	-0.008698	0.014648	0.061798	-0.094757	0.13641	-0.020752	-0.060883	0.023804	-0.01297	0.008087	0.19608	0.034943	0.016479	0.002747	-0.053101	0.242	0.089874	0.046539	0.13306	0.23163	-0.32333	0.10284	0.025635	0.056305	0.12848	-0.005798	-0.31906	0.020905	-0.001373	-0.012665
58.602	0.023804	0.027466	-0.029144	-0.005798	0.11246	-0.060425	0.12329	-0.006561	-0.028992	0.010376	-0.046997	0.000458	0.074158	0.023499	0.016174	0.006866	-0.051117	0.26398	0.088806	-0.010834	0.090027	0.30975	-0.28992	0.08728	0.003357	-0.005188	0.072632	-0.015259	-0.14114	0.25162	-0.001831	-0.020752
58.603	0.019836	-0.025024	-0.048828	0.005188	0.095978	0.000916	0.10056	-0.000153	-0.040894	0.014038	-0.037537	0.001373	-0.11826	0.061798	0.026855	0.019226	-0.033112	0.18601	0.087891	-0.006561	0.059052	0.24109	-0.2652	-0.034485	-0.032349	-0.063934	-0.09491	-0.018005	0.041504	0.30182	0	-0.019836
58.604	-0.001678	0.018921	-0.032806	0.03418	0.027618	-0.025787	0.10208	-0.01297	-0.076599	0.014191	-0.005951	0.008698	-0.057983	0.027924	0.019226	0.011749	0.001526	0.1413	0.06546	-0.037842	0.057983	0.05661	-0.23773	0.040741	-0.03067	-0.083771	-0.14496	-0.027161	0.21133	0.29739	-0.003967	-0.010986
58.605	-0.008545	0.023193	-0.009613	0.009613	-0.010376	-0.019073	0.043488	-0.005951	-0.07843	0.00473	0.042114	-0.001526	0.061951	0.031738	-0.005646	0.018616	0.01358	0.079803	0.061493	-0.020294	0.041046	0.022583	-0.27084	0.049133	-0.037842	-0.12009	-0.068817	-0.027771	0.38116	0.24262	-0.002441	-0.015106
58.606	-0.014801	0.054321	0.027313	-0.007935	-0.057983	0.036163	-0.06134	0.011292	-0.068207	0.004425	0.012207	0.009308	-0.12863	0.067139	-0.035095	0.018616	0.022583	0.039978	0.063782	-0.025787	0.020142	0.058899	-0.27557	0.02655	-0.035858	-0.121	0.015564	0.022736	0.38605	0.13718	-0.000153	-0.016022
58.607	-0.028076	0.086975	0.025024	-0.024872	-0.059814	0.10117	-0.1207	0.037842	-0.077057	0.019379	-0.014038	0.010376	-0.20233	0.053558	-0.041199	0.009308	0.02533	0.058594	0.10346	-0.04837	0.062561	0.005188	-0.24567	0.017242	-0.033417	0.010223	0.00412	-0.038147	0.28534	0.094147	-0.001831	-0.010376
58.608	-0.010071	0.10773	0.004883	-0.021362	-0.05188	0.099182	-0.14404	0.032043	0.044861	0.010834	0.006409	0.006714	0.22659	0.076904	-0.0383	0.019226	0.014801	0.12772	0.053711	-0.10605	0.039368	-0.04776	-0.26596	-0.027618	-0.065918	0.057983	-0.032654	-0.028839	0.23911	-0.021515	-0.004883	-0.001831
58.609	-0.006104	0.11536	0.013275	-0.000458	-0.06546	0.075378	-0.16724	0.02121	0.037689	0.009766	0.01709	0.008698	0.086823	0.066528	-0.027466	0.002594	0.031281	0.074158	0.003204	-0.057831	-0.028381	-0.074158	-0.25604	-0.03067	-0.072784	0.056915	-0.033264	0.063782	0.15442	-0.21805	0.000458	-0.00946
58.61	0.00351	0.069885	0.011749	0.040894	-0.011444	0.064545	-0.20432	0.015717	0.002747	-0.01709	0.012512	0.006714	0.005188	0.088043	-0.029144	0.010223	0.010529	0.005951	0.074768	-0.00824	-0.16419	-0.032654	-0.23605	-0.10346	-0.090942	0.041046	-0.000763	0.044098	0.000458	-0.29221	-0.001526	-0.020905
58.611	-0.005493	0.10193	0.006104	0.018768	0.046082	0.061798	-0.14832	0.008392	-0.045166	0.013733	0.001526	0.003052	-0.11337	0.071106	-0.061035	0.003967	0.010834	0.009308	0.029602	0.000153	-0.12009	-0.090179	-0.23666	-0.016479	-0.06958	0.007019	-0.005951	0.016785	0.13153	-0.33447	-0.000763	-0.020599
58.612	-0.014648	0.14099	-0.014191	0.018616	-0.02243	0.15503	-0.10727	0.014191	-0.030518	0.002899	-0.013123	0.002289	-0.20859	0.055847	-0.060577	0.00351	0.012207	-0.000916	-0.003052	-0.022736	0.038605	-0.12161	-0.24689	-0.087891	-0.086975	-0.015869	-0.028687	0.024567	0.19638	-0.19379	-0.002289	-0.022125
58.613	-0.00824	0.075989	0.000916	0.009155	-0.11063	0.14938	-0.11871	0.021667	0.001068	0.005951	-0.002136	0.009613	-0.15762	0.095062	0.000458	-0.006409	0.008698	-0.019531	0.046844	-0.032959	0.067902	-0.087585	-0.32379	-0.095367	-0.067444	0.005188	0.014954	-0.000153	0.1387	-0.065918	-0.002289	-0.017548
58.614	0.003815	0.088196	0.003815	0.001526	-0.1474	0.12466	-0.10483	0.006409	0.012512	0.007477	0.002289	0.009766	-0.18188	0.1442	0.018616	-0.017242	0.017242	0.00412	0.051727	-0.038147	0.013275	-0.1384	-0.25009	-0.093842	-0.066071	0.027771	0.021667	-0.030518	0.12192	0.090027	0.000458	-0.024872
58.615	0.017853	0.11551	0.009003	-0.004578	-0.056458	0.063019	-0.10056	0.000305	0.046997	0.007172	-0.029907	0.007019	0.24429	0.14297	0.002899	-0.015869	0.020447	0.018921	0.016022	0.005951	-0.029144	-0.098419	-0.28915	-0.027924	-0.054321	-0.018158	0.029297	-0.021057	0.044098	0.25833	-0.000916	-0.019684
58.616	0.021362	0.09079	0.01297	0.014648	0.049896	0.023346	-0.055084	0.003204	0.068054	-0.006409	-0.014038	-0.000763	-0.009613	0.15701	0.022736	-0.000763	0.009308	0.006104	0.054932	-0.038452	-0.11429	-0.049438	-0.34897	-0.079651	-0.050964	-0.11902	0.013275	-0.012054	0.002747	0.25879	-0.001526	-0.010223
58.617	0.011292	0.085754	0.012817	0.000153	0.10742	-0.005798	0.045929	-0.007172	0.070648	-0.006561	0.007172	0.006714	-0.21774	0.16525	0.016479	-0.022278	0.002747	-0.13016	0.088959	0.014191	-0.099792	-0.07019	-0.39871	-0.02533	-0.050201	-0.088654	0.02121	-0.007782	-0.045624	0.13886	-0.00412	-0.010681
58.618	0.013275	0.068054	-0.006714	-0.01236	0.025482	-0.18326	0.048828	0.000458	0.038147	0.010223	0.013428	-0.000763	0.20493	0.065765	-0.062714	-0.039063	0.015717	-0.10971	0.099182	0.080109	-0.13199	-0.089417	-0.41016	-0.040283	-0.058746	-0.014191	0.046844	-0.006561	-0.11536	0.097809	-0.002441	-0.016022
58.619	0.01236	0.085297	0.003204	0.008087	-0.079193	-0.3212	-0.046234	-0.006714	0.034332	-0.030823	-0.039368	0.011902	0.52521	0.1091	-0.022125	-0.029755	0.027161	-0.12314	0.054016	0.12238	-0.17212	-0.079651	-0.40939	0.017242	-0.039215	-0.032959	0.054321	-0.007477	-0.14954	0.014954	-0.001984	-0.017548
58.62	0.014191	0.097961	-0.040131	0.014496	-0.06958	-0.21622	-0.13596	-0.00412	0.14313	-0.031891	-0.014801	0.018921	0.18494	0.13382	0.00351	-0.014648	-0.022888	-0.13046	0.049438	0.10803	-0.020294	0.045319	-0.43533	-0.030518	-0.041351	-0.159	0.050659	-0.001831	-0.25787	-0.071259	0.000305	-0.010986
58.621	-0.000763	0.12116	-0.034943	0.006714	-0.068665	-0.16083	-0.053558	-0.00885	0.20126	-0.009003	0.018005	0.011597	-0.3389	0.13916	-0.006714	-0.029602	-0.032349	-0.11414	0.018005	0.058594	-0.10071	0.12116	-0.41977	0.003204	-0.026093	-0.043945	0.01358	-0.014801	-0.42389	-0.15015	-0.00351	-0.010223
58.622	-0.033875	0.09491	-0.009613	0.010986	-0.015106	-0.058289	0.056	-0.003662	0.16327	0.019989	0.016632	0.019684	-0.27283	0.11307	-0.055389	-0.023193	0.007172	-0.10391	0.032043	0.002594	-0.084839	0.055542	-0.4184	0.038452	-0.005035	0.071411	-0.019531	-0.014191	-0.15274	-0.31662	-0.001678	-0.016022
58.623	-0.061646	0.086517	0.031128	0.010071	0.049744	0.000153	0.11551	0.013123	0.07431	0.006714	0.019989	0.015411	0.007477	0.13534	-0.040131	-0.021667	0.048523	-0.17242	0.074158	-0.09552	0	-0.016022	-0.41153	-0.010071	-0.024109	-0.044708	-0.00824	-0.02655	0.14832	-0.6366	0.000763	-0.021057
58.624	-0.076294	0.075531	-0.005188	0.014648	0.024261	0.017548	0.071411	0.012207	0.067291	0.005646	0.007477	0.019989	0.012512	0.13016	-0.032654	0.007477	0.030212	-0.16464	0.083618	-0.11337	-0.065002	0.018921	-0.40832	-0.020294	-0.019226	-0.084381	-0.04715	0.000305	0.40161	-1.0573	0.001068	-0.02594
58.625	-0.063782	0.059814	-0.027618	0.001526	0.016479	-0.035095	-0.009003	0.015564	-0.006714	-0.018768	0.010529	0.02121	0.041199	0.15533	-0.016479	0.007782	0.00351	-0.1329	0.1088	-0.068665	-0.057831	0.02533	-0.41931	-0.015106	-0.01236	0.037537	-0.052795	0.088043	0.15381	-1.3013	-0.002136	-0.028076
58.626	-0.022583	0.055389	-0.03891	-0.007019	0.031433	-0.055237	-0.085907	0.004425	-0.085297	-0.013733	0.007629	0.013123	-0.066223	0.18631	-0.015106	0.033722	-0.026398	-0.14725	0.070801	0.03067	-0.018616	0.028687	-0.43564	0.054626	0.008087	-0.03891	0.000916	-0.041046	-0.16861	-0.74493	-0.000763	-0.024109
58.627	0.010834	0.058746	-0.025482	-0.002899	0.1535	-0.004578	-0.093231	0.001373	-0.12833	-0.025482	0.000153	0.015869	0.096588	0.11765	0.012665	0.065155	0.009918	-0.14954	0.098724	0.060272	-0.016022	0.036011	-0.41992	0.009003	0.024872	-0.04776	-0.010071	-0.392	0.040131	0.30746	0.003662	-0.021667
58.628	0.016632	0.084534	-0.049744	-0.009766	0.10452	0.072327	-0.08667	-0.008392	-0.033112	-0.063477	-0.009155	0.016174	0.21683	0.052795	0.011749	0.11963	0.046997	-0.1358	0.069885	0.044708	-0.02594	-0.043488	-0.43594	0.009766	0.005798	0.053101	-0.024414	0.16937	0.1239	0.44083	-0.001526	-0.026245
58.629	0.003815	0.05661	0.012512	0.020599	0.035553	0.15808	-0.098724	-0.001678	0.001831	-0.055542	0.001526	0.009613	-0.072784	0.1207	0.002136	0.11581	0.093689	-0.12238	0.028839	0.026245	-0.04303	0.029297	-0.41931	-0.006714	0.006561	0.023956	0.00885	0.10819	0.045013	0.42602	0.000153	-0.023499
58.63	0.004883	0.013733	0.02655	0.015411	-0.028381	0.13138	-0.10544	-0.001678	0.052948	-0.033569	0.009613	0.005341	-0.4155	0.13611	0.005951	0.067749	0.1001	-0.1355	0.041199	-0.029907	-0.083618	0.045471	-0.45136	-0.026855	0.028076	0.083618	0.001984	0.034332	0.13672	1.4027	-0.00351	-0.009613
58.631	0.011292	0.018311	0.038605	0.026245	-0.10468	0.13763	-0.11887	-0.011292	0.086517	-0.06485	0.024261	-0.002594	-0.22201	0.20783	0.007324	0.061646	0.044098	-0.13733	0.053558	-0.051727	-0.1355	0.051727	-0.46234	0.075226	0.012665	0.13992	-0.022278	0.04715	0.30395	1.4259	-0.003967	0.000153
58.632	0.021973	0.056915	0.014038	0.019073	-0.041199	0.17212	-0.11765	-0.005341	0.11673	-0.07782	-0.008087	0.001831	-0.046387	0.25177	0.011139	0.054626	0.001526	-0.15503	0.067749	-0.072784	-0.078125	-0.061646	-0.45609	0.033569	-0.001678	0.06424	-0.018005	0.049286	0.26733	1.364	-0.002441	-0.010223
58.633	0.031433	0.11002	-0.002899	0.007019	0.00824	0.18662	-0.11505	-0.009613	0.081177	-0.052948	-0.014191	0.006104	0.11597	0.24109	-0.01297	0.035248	-0.025024	-0.17212	0.087433	-0.043793	-0.00412	-0.12619	-0.44937	0.022736	-0.028534	0.003967	0.008392	-0.000763	0.12573	0.73654	-0.002899	-0.002441
58.634	0.028687	0.11414	-0.006561	0.015564	-0.026398	0.17548	-0.1741	0.003967	0.017853	-0.074768	-0.013428	0.007172	0.04364	0.27985	0.090942	-0.004272	-0.055847	-0.17944	0.1297	-0.020752	0.019684	-0.13901	-0.47104	0.05127	-0.016174	-0.067291	0.018463	-0.001526	-0.017395	0.6192	-0.003052	-0.01358
58.635	0.044861	0.067902	-0.002289	0.015869	-0.005035	0.047607	-0.26077	0.006256	-0.032806	-0.13321	-0.011444	0.005341	0.66925	0.22507	0.10712	-0.000458	-0.071411	-0.21393	0.16098	0.034943	-0.077972	-0.081635	-0.47943	0.065308	-0.03479	0.014954	-0.014191	-0.009155	-0.14618	0.51575	-0.005341	-0.001678
58.636	0.071259	0.06073	-0.009003	-0.001526	0.08255	0.076904	-0.24811	0.014954	-0.056763	-0.13306	0.006409	0.009308	0.45441	0.14648	0.028229	-0.016022	-0.085602	-0.233	0.16098	0.067291	-0.25787	-0.061493	-0.44617	0.075226	-0.040741	0.056915	-0.011444	-0.032959	-0.19257	0.15167	-0.002289	-0.009308
58.637	0.051117	0.12955	-0.023346	-0.003204	0.10269	0.16754	-0.20325	0.016174	-0.014343	-0.11368	-0.012207	0.006256	-0.12909	0.11124	-0.046387	-0.031586	-0.056763	-0.2713	0.17578	0.024567	-0.028534	-0.1738	-0.39017	0.008087	-0.041504	0.035858	-0.013123	-0.044861	-0.18417	-0.24704	-0.000153	-0.012512
58.638	0.036621	0.18005	-0.062256	0.002747	0.070496	0.20615	-0.22049	0.013885	0.083313	-0.096741	0.001221	0.014038	-0.80597	0.17502	-0.068054	-0.053558	-0.060883	-0.32013	0.1886	-0.11246	0.039368	-0.085144	-0.38361	0.011292	-0.027008	0.038147	-0.012207	-0.01358	-0.1506	-0.51682	-0.001526	-0.024719
58.639	0.023041	0.19562	0.023193	0.003967	0.034485	0.22812	-0.1915	-0.001221	0.11765	-0.066833	0.005188	0.009918	-0.28076	0.047607	-0.075989	-0.11002	-0.063629	-0.32898	0.27023	-0.23499	0.12299	0.013123	-0.41412	0.018463	-0.039825	0.058136	-0.032349	0.083923	-0.13321	-0.62729	0.002594	-0.016174
